<?xml version="1.0" standalone="no"?>
<!DOCTYPE svg PUBLIC "-//W3C//DTD SVG 20010904//EN"
 "http://www.w3.org/TR/2001/REC-SVG-20010904/DTD/svg10.dtd">
<svg version="1.0" xmlns="http://www.w3.org/2000/svg"
 width="700.000000pt" height="700.000000pt" viewBox="0 0 700.000000 700.000000"
 preserveAspectRatio="xMidYMid meet">
<metadata>
Created by potrace 1.14, written by Peter Selinger 2001-2017
</metadata>
<g transform="translate(0.000000,700.000000) scale(0.100000,-0.100000)"
fill="#000000" stroke="none">
<path d="M3428 6405 c-2 -1 -48 -5 -104 -9 -55 -4 -111 -9 -124 -11 -13 -2
-48 -7 -78 -10 -30 -3 -57 -7 -61 -9 -4 -3 -25 -7 -47 -10 -51 -6 -200 -41
-289 -67 -352 -104 -708 -299 -990 -542 -225 -195 -521 -529 -611 -692 -6 -11
-29 -50 -52 -86 -175 -286 -299 -640 -356 -1019 -30 -201 -28 -634 4 -830 5
-30 11 -76 15 -102 4 -36 42 -217 59 -283 114 -441 349 -848 686 -1185 459
-461 1042 -768 1620 -856 25 -3 54 -8 65 -10 96 -18 487 -25 620 -11 343 37
643 113 930 236 66 29 145 66 175 83 30 17 75 42 100 56 223 123 491 346 690
573 132 150 192 229 293 385 213 330 364 731 411 1092 12 91 16 119 22 182 6
67 6 411 0 465 -2 17 -7 59 -10 95 -16 140 -21 175 -42 280 -16 80 -39 176
-55 225 -80 255 -136 391 -242 580 -43 76 -151 245 -179 280 -4 5 -40 51 -79
100 -312 397 -725 711 -1171 891 -150 61 -368 128 -483 148 -16 3 -41 8 -55
11 -14 3 -40 8 -59 11 -18 3 -43 8 -55 10 -11 2 -46 7 -76 10 -30 3 -68 8 -85
11 -29 5 -382 12 -387 8z m904 -835 c275 -71 567 -262 849 -556 224 -234 428
-603 505 -913 2 -9 10 -43 19 -76 23 -93 41 -192 53 -295 14 -127 6 -443 -13
-540 -3 -14 -8 -40 -11 -59 -78 -468 -362 -957 -744 -1282 -354 -301 -761
-478 -1209 -526 -88 -10 -359 -10 -444 0 -344 38 -648 140 -932 311 -579 350
-983 970 -1060 1631 -12 103 -15 350 -5 385 22 75 103 109 167 70 77 -46 90
-108 91 -418 0 -256 5 -313 28 -349 33 -53 126 -64 183 -24 58 41 74 96 86
291 10 154 19 225 47 344 109 472 390 821 844 1049 160 80 345 135 524 154 92
10 418 10 520 0 189 -19 220 -21 295 -21 103 0 145 8 210 40 114 56 187 163
190 278 3 120 -48 195 -203 300 -126 85 -143 99 -157 126 -15 31 -12 56 11 81
22 24 56 24 156 -1z"/>
<path d="M3608 3895 c-1 -1 -34 -6 -72 -10 -312 -31 -581 -263 -651 -560 -28
-117 -7 -285 49 -389 39 -76 118 -156 152 -156 14 0 23 4 19 10 -10 17 -20
132 -19 230 1 138 30 225 114 335 92 122 191 193 335 238 238 76 552 8 730
-158 25 -22 73 -41 82 -31 6 5 -33 81 -67 131 -38 55 -145 165 -204 209 -103
78 -246 132 -370 142 -39 3 -76 7 -83 9 -6 2 -13 2 -15 0z"/>
<path d="M4136 3305 c-3 -8 -3 -46 0 -83 6 -74 -5 -151 -37 -245 -81 -242
-260 -406 -509 -468 -197 -50 -464 4 -630 126 -26 19 -57 35 -69 35 l-21 0 21
-42 c112 -223 448 -398 714 -374 102 9 214 42 306 90 273 141 419 433 363 727
-15 81 -33 124 -80 194 -38 58 -48 65 -58 40z"/>
</g>
</svg>
